<mxfile host="app.diagrams.net" modified="2021-10-03T06:51:36.343Z" agent="5.0 (Windows NT 10.0; Win64; x64) AppleWebKit/537.36 (KHTML, like Gecko) Chrome/94.0.4606.71 Safari/537.36" etag="iRdss4hBpw3oJRyNW8Ec" version="15.4.1" type="github">
  <diagram id="N2svAw6vheMQFny0EywX" name="Page-1">
    <mxGraphModel dx="1038" dy="547" grid="1" gridSize="10" guides="1" tooltips="1" connect="1" arrows="1" fold="1" page="1" pageScale="1" pageWidth="827" pageHeight="1169" math="0" shadow="0">
      <root>
        <mxCell id="0" />
        <mxCell id="1" parent="0" />
        <mxCell id="PSpPh_OBVTR8xBgx_vfa-1" value="" style="rounded=0;whiteSpace=wrap;html=1;" vertex="1" parent="1">
          <mxGeometry x="130" y="110" width="690" height="460" as="geometry" />
        </mxCell>
        <mxCell id="PSpPh_OBVTR8xBgx_vfa-2" value="" style="rounded=0;whiteSpace=wrap;html=1;fillColor=#dae8fc;strokeColor=#6c8ebf;" vertex="1" parent="1">
          <mxGeometry x="150" y="135" width="660" height="40" as="geometry" />
        </mxCell>
        <mxCell id="PSpPh_OBVTR8xBgx_vfa-4" value="&lt;font style=&quot;font-size: 18px&quot;&gt;&lt;b&gt;视图层&lt;/b&gt;&lt;/font&gt;" style="rounded=0;whiteSpace=wrap;html=1;fillColor=#1ba1e2;strokeColor=#006EAF;fontColor=#ffffff;" vertex="1" parent="1">
          <mxGeometry x="150" y="135" width="110" height="40" as="geometry" />
        </mxCell>
        <mxCell id="PSpPh_OBVTR8xBgx_vfa-5" value="用户管理界面" style="rounded=1;whiteSpace=wrap;html=1;fontSize=18;fillColor=#1ba1e2;strokeColor=#006EAF;fontColor=#ffffff;" vertex="1" parent="1">
          <mxGeometry x="290" y="140" width="130" height="30" as="geometry" />
        </mxCell>
        <mxCell id="PSpPh_OBVTR8xBgx_vfa-6" value="检测结果展示" style="rounded=1;whiteSpace=wrap;html=1;fontSize=18;fillColor=#1ba1e2;strokeColor=#006EAF;fontColor=#ffffff;" vertex="1" parent="1">
          <mxGeometry x="440" y="140" width="120" height="30" as="geometry" />
        </mxCell>
        <mxCell id="PSpPh_OBVTR8xBgx_vfa-7" value="历史记录展示" style="rounded=1;whiteSpace=wrap;html=1;fontSize=18;fillColor=#1ba1e2;strokeColor=#006EAF;fontColor=#ffffff;" vertex="1" parent="1">
          <mxGeometry x="580" y="140" width="120" height="30" as="geometry" />
        </mxCell>
        <mxCell id="PSpPh_OBVTR8xBgx_vfa-8" value="" style="rounded=0;whiteSpace=wrap;html=1;fillColor=#dae8fc;strokeColor=#6c8ebf;" vertex="1" parent="1">
          <mxGeometry x="150" y="230" width="660" height="40" as="geometry" />
        </mxCell>
        <mxCell id="PSpPh_OBVTR8xBgx_vfa-9" value="&lt;font style=&quot;font-size: 18px&quot;&gt;&lt;b&gt;控制器层&lt;/b&gt;&lt;/font&gt;" style="rounded=0;whiteSpace=wrap;html=1;fillColor=#1ba1e2;strokeColor=#006EAF;fontColor=#ffffff;" vertex="1" parent="1">
          <mxGeometry x="150" y="230" width="110" height="40" as="geometry" />
        </mxCell>
        <mxCell id="PSpPh_OBVTR8xBgx_vfa-10" value="参数绑定" style="rounded=1;whiteSpace=wrap;html=1;fontSize=18;fillColor=#1ba1e2;strokeColor=#006EAF;fontColor=#ffffff;" vertex="1" parent="1">
          <mxGeometry x="290" y="235" width="100" height="30" as="geometry" />
        </mxCell>
        <mxCell id="PSpPh_OBVTR8xBgx_vfa-11" value="请求转发" style="rounded=1;whiteSpace=wrap;html=1;fontSize=18;fillColor=#1ba1e2;strokeColor=#006EAF;fontColor=#ffffff;" vertex="1" parent="1">
          <mxGeometry x="414" y="235" width="120" height="30" as="geometry" />
        </mxCell>
        <mxCell id="PSpPh_OBVTR8xBgx_vfa-23" value="" style="rounded=0;whiteSpace=wrap;html=1;fillColor=#dae8fc;strokeColor=#6c8ebf;" vertex="1" parent="1">
          <mxGeometry x="150" y="517" width="660" height="40" as="geometry" />
        </mxCell>
        <mxCell id="PSpPh_OBVTR8xBgx_vfa-24" value="&lt;font style=&quot;font-size: 18px&quot;&gt;&lt;b&gt;实体层&lt;/b&gt;&lt;/font&gt;" style="rounded=0;whiteSpace=wrap;html=1;fillColor=#1ba1e2;strokeColor=#006EAF;fontColor=#ffffff;" vertex="1" parent="1">
          <mxGeometry x="150" y="517" width="110" height="40" as="geometry" />
        </mxCell>
        <mxCell id="PSpPh_OBVTR8xBgx_vfa-25" value="数据库" style="rounded=1;whiteSpace=wrap;html=1;fontSize=18;fillColor=#1ba1e2;strokeColor=#006EAF;fontColor=#ffffff;" vertex="1" parent="1">
          <mxGeometry x="290" y="522" width="100" height="30" as="geometry" />
        </mxCell>
        <mxCell id="PSpPh_OBVTR8xBgx_vfa-32" value="" style="rounded=0;whiteSpace=wrap;html=1;fillColor=#dae8fc;strokeColor=#6c8ebf;" vertex="1" parent="1">
          <mxGeometry x="150" y="420" width="660" height="40" as="geometry" />
        </mxCell>
        <mxCell id="PSpPh_OBVTR8xBgx_vfa-33" value="&lt;span style=&quot;font-size: 18px&quot;&gt;&lt;b&gt;持久层&lt;/b&gt;&lt;/span&gt;" style="rounded=0;whiteSpace=wrap;html=1;fillColor=#1ba1e2;strokeColor=#006EAF;fontColor=#ffffff;" vertex="1" parent="1">
          <mxGeometry x="150" y="420" width="110" height="40" as="geometry" />
        </mxCell>
        <mxCell id="PSpPh_OBVTR8xBgx_vfa-34" value="数据库访问" style="rounded=1;whiteSpace=wrap;html=1;fontSize=18;fillColor=#1ba1e2;strokeColor=#006EAF;fontColor=#ffffff;" vertex="1" parent="1">
          <mxGeometry x="290" y="425" width="100" height="30" as="geometry" />
        </mxCell>
        <mxCell id="PSpPh_OBVTR8xBgx_vfa-37" value="" style="rounded=0;whiteSpace=wrap;html=1;fillColor=#dae8fc;strokeColor=#6c8ebf;" vertex="1" parent="1">
          <mxGeometry x="150" y="325" width="660" height="40" as="geometry" />
        </mxCell>
        <mxCell id="PSpPh_OBVTR8xBgx_vfa-38" value="&lt;span style=&quot;font-size: 18px&quot;&gt;&lt;b&gt;业务层&lt;/b&gt;&lt;/span&gt;" style="rounded=0;whiteSpace=wrap;html=1;fillColor=#1ba1e2;strokeColor=#006EAF;fontColor=#ffffff;" vertex="1" parent="1">
          <mxGeometry x="150" y="325" width="110" height="40" as="geometry" />
        </mxCell>
        <mxCell id="PSpPh_OBVTR8xBgx_vfa-39" value="用户管理" style="rounded=1;whiteSpace=wrap;html=1;fontSize=18;fillColor=#1ba1e2;strokeColor=#006EAF;fontColor=#ffffff;" vertex="1" parent="1">
          <mxGeometry x="290" y="330" width="100" height="30" as="geometry" />
        </mxCell>
        <mxCell id="PSpPh_OBVTR8xBgx_vfa-40" value="数据预处理" style="rounded=1;whiteSpace=wrap;html=1;fontSize=18;fillColor=#1ba1e2;strokeColor=#006EAF;fontColor=#ffffff;" vertex="1" parent="1">
          <mxGeometry x="414" y="330" width="120" height="30" as="geometry" />
        </mxCell>
        <mxCell id="PSpPh_OBVTR8xBgx_vfa-41" value="模型调用" style="rounded=1;whiteSpace=wrap;html=1;fontSize=18;fillColor=#1ba1e2;strokeColor=#006EAF;fontColor=#ffffff;" vertex="1" parent="1">
          <mxGeometry x="550" y="330" width="120" height="30" as="geometry" />
        </mxCell>
        <mxCell id="PSpPh_OBVTR8xBgx_vfa-44" value="历史数据操作" style="rounded=1;whiteSpace=wrap;html=1;fontSize=18;fillColor=#1ba1e2;strokeColor=#006EAF;fontColor=#ffffff;" vertex="1" parent="1">
          <mxGeometry x="685" y="330" width="120" height="30" as="geometry" />
        </mxCell>
        <mxCell id="PSpPh_OBVTR8xBgx_vfa-46" value="" style="html=1;shadow=0;dashed=0;align=center;verticalAlign=middle;shape=mxgraph.arrows2.twoWayArrow;dy=0.65;dx=22;fontSize=18;rotation=-90;fillColor=#dae8fc;strokeColor=#6c8ebf;" vertex="1" parent="1">
          <mxGeometry x="177.5" y="287.5" width="55" height="20" as="geometry" />
        </mxCell>
        <mxCell id="PSpPh_OBVTR8xBgx_vfa-52" value="" style="html=1;shadow=0;dashed=0;align=center;verticalAlign=middle;shape=mxgraph.arrows2.twoWayArrow;dy=0.65;dx=22;fontSize=18;rotation=-90;fillColor=#dae8fc;strokeColor=#6c8ebf;" vertex="1" parent="1">
          <mxGeometry x="177.5" y="480" width="55" height="20" as="geometry" />
        </mxCell>
        <mxCell id="PSpPh_OBVTR8xBgx_vfa-53" value="" style="html=1;shadow=0;dashed=0;align=center;verticalAlign=middle;shape=mxgraph.arrows2.twoWayArrow;dy=0.65;dx=22;fontSize=18;rotation=-90;fillColor=#dae8fc;strokeColor=#6c8ebf;" vertex="1" parent="1">
          <mxGeometry x="177.5" y="383" width="55" height="20" as="geometry" />
        </mxCell>
        <mxCell id="PSpPh_OBVTR8xBgx_vfa-54" value="" style="html=1;shadow=0;dashed=0;align=center;verticalAlign=middle;shape=mxgraph.arrows2.twoWayArrow;dy=0.65;dx=22;fontSize=18;rotation=-90;fillColor=#dae8fc;strokeColor=#6c8ebf;" vertex="1" parent="1">
          <mxGeometry x="177.5" y="193" width="55" height="20" as="geometry" />
        </mxCell>
      </root>
    </mxGraphModel>
  </diagram>
</mxfile>
